<svg viewBox="0 0 448 512" xmlns="http://www.w3.org/2000/svg">
  <path d="m292.3 311.93c0 42.41-39.72 41.43-43.92 41.43h-80.89v-81.69h80.89c42.56 0 43.92 31.9 43.92 40.26zm-50.15-73.13c.67 0 38.44 1 38.44-36.31 0-15.52-3.51-35.87-38.44-35.87h-74.66v72.18zm205.85-132.13v298.66a74.89 74.89 0 0 1 -74.67 74.67h-298.66a74.89 74.89 0 0 1 -74.67-74.67v-298.66a74.89 74.89 0 0 1 74.67-74.67h298.66a74.89 74.89 0 0 1 74.67 74.67zm-109.95 211.19c0-21.57-6.65-58.29-49.05-67.35v-.73c22.91-9.78 37.34-28.25 37.34-55.64 0-7 2-64.78-77.6-64.78h-127v261.33c128.23 0 139.87 1.68 163.6-5.71 14.21-4.42 52.71-17.98 52.71-67.12z" fill="#fff"/>
</svg>
