                <svg viewBox="0 0 321 361" xmlns="http://www.w3.org/2000/svg">
                    <path d="m82.382 177.43c-3.9792-2.607-7.4389-5.811-10.365-9.331l-12.476 3.286-9.4956-19.321 9.7378-8.524c-1.0652-4.765-1.2939-9.293-0.9892-14.142l-11.058-6.731 6.6424-20.838 12.704 1.242c2.5396-4.1284 5.6561-7.7195 9.0751-10.76l-3.1239-12.877 18.737-9.9052 8.2014 10.023c4.6156-1.1233 8.9996-1.381 13.687-1.0857l6.566-11.465 20.129 6.7715-1.26 13.138c3.979 2.606 7.424 5.5246 10.625 9.0312l12.475-3.2893 9.496 19.321-9.738 8.522c1.065 4.768 1.294 9.295 0.989 14.141l11.058 6.737-6.642 20.835-12.964-0.939c-2.54 4.125-5.656 7.713-9.076 10.754l3.125 12.883-18.738 9.902-8.201-10.025c-4.615 1.126-8.999 1.384-13.686 1.091l-6.841 11.475-20.129-6.768 1.5342-13.151zm20.53-23.359c12.012 3.838 24.59-2.865 28.647-15.031 4.057-12.167-2.657-25.404-14.409-29.541-12.011-3.838-24.589 2.866-28.646 15.032-4.0431 12.449 2.3975 25.7 14.408 29.54z" fill="#615E5E"/>
                    <path d="m37.235 337.36c-3.9791-2.606-7.4389-5.81-10.365-9.33l-12.476 3.286-9.4955-19.321 9.7377-8.524c-1.0652-4.766-1.2939-9.293-0.9892-14.142l-11.058-6.731 6.6423-20.838 12.705 1.241c2.5396-4.128 5.6561-7.719 9.0751-10.76l-3.1239-12.877 18.737-9.905 8.2014 10.023c4.6152-1.124 8.9993-1.381 13.686-1.086l6.5662-11.465 20.129 6.772-1.26 13.138c3.9791 2.606 7.4245 5.524 10.624 9.031l12.476-3.289 9.495 19.321-9.738 8.521c1.066 4.768 1.294 9.296 0.99 14.142l11.058 6.736-6.643 20.836-12.964-0.939c-2.539 4.125-5.656 7.713-9.075 10.754l3.124 12.883-18.737 9.902-8.2015-10.025c-4.6151 1.126-8.9992 1.383-13.686 1.091l-6.8405 11.475-20.129-6.769 1.5342-13.151zm20.531-23.358c12.011 3.838 24.589-2.865 28.647-15.032 4.0573-12.166-2.6575-25.403-14.409-29.54-12.011-3.838-24.589 2.865-28.646 15.032-4.0431 12.449 2.3976 25.699 14.409 29.54z" fill="#7450E9"/>
                    <path d="m165.95 319.29c-5.872-3.846-10.978-8.575-15.296-13.769l-18.41 4.85-14.013-28.513 14.37-12.579c-1.572-7.032-1.909-13.714-1.46-20.869l-16.318-9.933 9.802-30.751 18.748 1.832c3.748-6.092 8.347-11.391 13.392-15.879l-4.61-19.003 27.651-14.617 12.103 14.791c6.811-1.658 13.28-2.038 20.197-1.603l9.69-16.918 29.705 9.993-1.86 19.387c5.872 3.846 10.957 8.153 15.679 13.328l18.411-4.854 14.012 28.512-14.37 12.576c1.572 7.036 1.91 13.717 1.46 20.868l16.319 9.942-9.803 30.746-19.131-1.385c-3.748 6.087-8.347 11.383-13.393 15.87l4.611 19.011-27.651 14.614-12.103-14.795c-6.811 1.661-13.28 2.042-20.197 1.61l-10.094 16.934-29.705-9.989 2.264-19.407zm30.298-34.47c17.725 5.664 36.286-4.228 42.274-22.182 5.987-17.954-3.922-37.488-21.264-43.593-17.725-5.664-36.286 4.228-42.274 22.182-5.966 18.372 3.538 37.925 21.264 43.593z" fill="#615E5E"/>
                    <path d="m146.27 73.897c-2.594-1.6988-4.849-3.7878-6.757-6.0824l-8.132 2.1424-6.19-12.595 6.347-5.5568c-0.694-3.1064-0.843-6.0578-0.644-9.2186l-7.209-4.3878 4.33-13.584 8.282 0.809c1.655-2.6909 3.687-5.0319 5.916-7.0142l-2.037-8.3945 12.215-6.457 5.346 6.5337c3.009-0.73223 5.867-0.90022 8.922-0.70771l4.28-7.4735 13.122 4.4142-0.821 8.5643c2.594 1.6988 4.84 3.6013 6.926 5.8872l8.132-2.1442 6.19 12.595-6.348 5.555c0.695 3.1082 0.844 6.0597 0.645 9.2186l7.209 4.3914-4.33 13.582-8.451-0.6122c-1.656 2.6892-3.688 5.0283-5.916 7.0106l2.036 8.3981-12.214 6.4552-5.347-6.5356c-3.008 0.7341-5.866 0.9021-8.921 0.7115l-4.459 7.4803-13.122-4.4123 1-8.5729zm13.384-15.227c7.83 2.5018 16.029-1.8679 18.674-9.7988s-1.733-16.56-9.393-19.257c-7.83-2.5018-16.029 1.8679-18.674 9.7988-2.636 8.1155 1.563 16.753 9.393 19.257z" fill="#615E5E"/>
                    <path d="m259.27 165.9c-2.594-1.698-4.849-3.787-6.757-6.082l-8.132 2.142-6.19-12.595 6.347-5.557c-0.694-3.106-0.843-6.057-0.644-9.218l-7.209-4.388 4.33-13.584 8.282 0.809c1.655-2.691 3.687-5.032 5.916-7.014l-2.037-8.394 12.215-6.4575 5.346 6.5335c3.009-0.732 5.867-0.9 8.922-0.708l4.28-7.473 13.122 4.4141-0.821 8.5639c2.594 1.699 4.84 3.602 6.926 5.888l8.132-2.145 6.19 12.596-6.348 5.555c0.695 3.108 0.844 6.059 0.645 9.218l7.209 4.392-4.33 13.582-8.451-0.612c-1.656 2.689-3.688 5.028-5.916 7.01l2.036 8.398-12.214 6.455-5.347-6.535c-3.008 0.734-5.866 0.902-8.921 0.711l-4.459 7.481-13.122-4.413 1-8.573zm13.384-15.226c7.83 2.501 16.029-1.868 18.674-9.799s-1.733-16.56-9.393-19.257c-7.83-2.502-16.029 1.868-18.674 9.799-2.636 8.115 1.563 16.753 9.393 19.257z" fill="#7450E9"/>
                </svg>