        <svg width="310" height="267" viewBox="0 0 310 267" fill="none" xmlns="http://www.w3.org/2000/svg">
            <path d="M167.271 1.67548C159.234 17.7481 148.568 32.6499 139.593 48.217C137.993 50.9913 135.895 57.5998 133.378 60.1169C129.722 63.7732 138.491 51.0887 140.386 46.2778C144.887 34.8528 143.086 23.5579 130.117 18.9963C111.531 12.459 89.5751 24.444 74.6724 34.422C59.3896 44.6546 46.905 57.9457 37.2761 73.6033C28.7449 87.4761 21.8382 103.567 22.5335 120.189C22.9638 130.473 26.2037 141.547 34.786 148.132C45.6706 156.483 60.413 152.877 71.7636 147.955C99.3915 135.976 123.402 115.205 144.264 93.833C145.406 92.6641 148.632 88.9727 147.526 90.1749C140.97 97.3014 135.141 105.206 129.235 112.851C90.4915 163.004 51.2252 212.651 10.1709 260.938C9.19803 262.082 8.2429 263.241 7.28413 264.397C5.80034 266.187 10.1784 260.758 11.5593 258.888C27.1381 237.793 41.9607 216.149 58.1008 195.466C71.623 178.139 86.2665 162.166 102.439 147.294C109.337 140.951 117.073 135.361 123.814 128.871C126.533 126.255 117.107 132.338 113.854 134.248C92.2403 146.942 70.8422 159.985 49.7709 173.562C34.5602 183.363 19.6633 193.759 3.91251 202.694C-8.41031 209.685 28.7204 189.001 41.2207 182.333C104.231 148.72 169.386 118.511 238.273 98.9456C259.609 92.8859 281.394 87.8939 303.281 84.2691C313.803 82.5265 303.559 83.9379 300.945 84.181" stroke="white" stroke-width="3" stroke-linecap="round"/>
            <path d="M154.395 116.854C161.183 110.567 167.227 103.412 173.31 96.4534C176.707 92.5687 173.564 95.4496 172.432 96.7729C169.176 100.578 165.729 104.782 163.597 109.346C162.542 111.605 161.649 114.639 165.131 113.468C169.69 111.934 173.588 109.067 176.937 105.671C179.15 103.428 181.15 100.988 182.928 98.3865C183.255 97.907 185.162 95.5187 184.909 94.6322C184.388 92.8083 177.61 98.7584 177.192 99.2172C175.923 100.611 171.616 105.383 174.62 107.093C178.263 109.167 183.664 105.338 186.379 103.339C189.921 100.73 195.839 96.217 196.923 91.5488C197.417 89.421 194.962 95.4574 194.127 97.4759C193.39 99.257 192.608 103.122 190.948 104.329C189.663 105.264 190.678 100.941 190.692 100.911C192.775 96.3139 198.382 93.3307 202.706 91.2932C206.526 89.4927 210.54 88.8384 214.56 87.7146C216.526 87.1649 211.192 87.4715 210.981 87.491C207.425 87.8194 203.378 89.0227 200.933 91.7885C198.311 94.7533 199.287 98.7413 202.53 100.751C205.795 102.773 209.166 101.398 211.78 98.9936C213.767 97.1655 217.255 89.7518 216.317 92.2837C214.703 96.6411 214.249 101.516 212.914 105.975C210.452 114.202 206.329 123.654 198.233 127.798C194.831 129.539 187.863 129.271 190.213 123.596C191.95 119.399 196.219 115.992 199.607 113.244C205.164 108.736 211.256 104.912 217.308 101.118C225.854 95.76 234.603 90.6647 242.869 84.8709C243.319 84.5552 248.34 81.5765 247.981 80.1741C247.637 78.8268 242.394 80.7277 242.23 80.7811C236.063 82.7913 230.092 86.0893 224.848 89.8873C223.353 90.9707 216.78 97.6461 222.979 97.2362C228.381 96.8791 233.984 91.8157 237.917 88.5773C240.832 86.1766 243.579 83.5832 246.32 80.9888C247.017 80.3291 248.292 78.3027 248.588 79.2155C249.261 81.2844 247.924 83.7826 250.09 85.4461C252.697 87.4482 255.004 85.9555 257.056 84.3597" stroke="white" stroke-width="3" stroke-linecap="round"/>
            <path d="M184.252 79.7382C182.867 80.113 181.266 81.191 180.563 82.4711C179.379 84.6312 182.834 84.9303 184.089 84.7305C186.676 84.3184 186.195 82.1652 184.856 80.6436" stroke="white" stroke-width="3" stroke-linecap="round"/>
        </svg>